<svg width="71" height="71" viewBox="0 0 71 71" fill="none" xmlns="http://www.w3.org/2000/svg">
<g clip-path="url(#clip0)">
<path d="M35.5 0.0183105C15.8928 0.0183105 0 15.9092 0 35.5091C0 55.1091 15.8928 70.9999 35.5 70.9999C55.1072 70.9999 71 55.1104 71 35.5091C71 15.9078 55.1059 0.0183105 35.5 0.0183105Z" fill="#F4B41A"/>
<path d="M35.5 0.0185547C15.8928 0.0185547 0 15.9094 0 35.5093C0 55.1093 15.8928 71.0001 35.5 71.0001C55.1072 71.0001 71 55.1106 71 35.5093C71 15.9081 55.1059 0.0185547 35.5 0.0185547Z" fill="#F4B41A"/>
<path d="M15.0005 29.1619V28.1653C15.0005 27.6525 15.2635 27.2425 15.7894 26.9353L25.9674 20.9135C26.2103 20.74 26.4999 20.6435 26.7983 20.6367C26.9639 20.6381 27.1276 20.6729 27.2795 20.7388C27.4314 20.8048 27.5684 20.9006 27.6825 21.0206C27.81 21.1415 27.9109 21.2875 27.9788 21.4495C28.0467 21.6115 28.0802 21.7858 28.077 21.9614C28.077 22.4435 27.8874 22.7972 27.5083 23.0224L17.9845 28.6551L27.5097 34.2542C27.885 34.5001 28.073 34.8636 28.073 35.3481C28.076 35.5237 28.0424 35.698 27.9745 35.8599C27.9066 36.0218 27.8059 36.1679 27.6786 36.2889C27.5645 36.4089 27.4274 36.5047 27.2755 36.5707C27.1236 36.6367 26.96 36.6714 26.7944 36.6728C26.538 36.6728 26.261 36.5805 25.9634 36.396L15.7835 30.392C15.2619 30.1053 15.0009 29.6953 15.0005 29.1619Z" fill="white"/>
<path d="M41.7408 20.7136L31.2492 38.5004C31.0857 38.7695 30.8247 38.9036 30.4662 38.9027C30.1207 38.9 29.7868 38.7776 29.5215 38.5562C29.3831 38.454 29.2711 38.3202 29.195 38.166C29.1188 38.0117 29.0806 37.8414 29.0837 37.6694C29.0837 37.3521 29.1862 37.014 29.3913 36.655L39.8888 18.8886C40.0641 18.6094 40.3346 18.4694 40.7001 18.4685C41.0375 18.4714 41.3643 18.5871 41.6283 18.7972C41.7661 18.8957 41.8778 19.0262 41.9537 19.1775C42.0296 19.3288 42.0676 19.4964 42.0642 19.6656C42.0642 20.004 41.9564 20.3526 41.7408 20.7116" fill="white"/>
<path d="M55.9453 28.1601V29.162C55.9453 29.6879 55.6953 30.0996 55.1952 30.3972L45.0119 36.3961C44.7139 36.581 44.4319 36.6733 44.1659 36.6728C43.834 36.6714 43.5161 36.5389 43.2816 36.304C43.1528 36.1848 43.051 36.0394 42.983 35.8776C42.9149 35.7158 42.8823 35.5414 42.8872 35.3659C42.8872 34.8742 43.0805 34.5113 43.469 34.2871L52.9764 28.6551L43.471 23.0579C43.0825 22.8121 42.8892 22.4406 42.8892 21.9482C42.8843 21.7721 42.917 21.597 42.985 21.4345C43.053 21.2719 43.1548 21.1257 43.2836 21.0055C43.5181 20.7707 43.836 20.6381 44.1678 20.6367C44.4242 20.6367 44.7062 20.729 45.0139 20.9135L55.1958 26.9274C55.6955 27.2252 55.9466 27.6374 55.9466 28.1601" fill="white"/>
<path d="M31.8373 17.9136C31.6259 17.915 31.421 17.8406 31.2599 17.7038C31.0987 17.567 30.9919 17.3769 30.9591 17.1681C30.6185 14.829 28.7068 12.9718 26.4229 12.6319C26.2139 12.5994 26.0234 12.4929 25.8861 12.3319C25.7488 12.1708 25.6739 11.9659 25.6748 11.7543C25.6749 11.6268 25.7023 11.5007 25.7553 11.3847C25.8082 11.2686 25.8854 11.1653 25.9817 11.0816C26.0779 10.9979 26.191 10.9359 26.3133 10.8996C26.4356 10.8633 26.5642 10.8537 26.6905 10.8714C28.2101 11.0926 29.6177 11.7984 30.704 12.8837C31.7904 13.969 32.4975 15.3759 32.7202 16.8952C32.7381 17.0216 32.7287 17.1504 32.6925 17.2728C32.6563 17.3952 32.5943 17.5084 32.5106 17.6048C32.4269 17.7011 32.3234 17.7784 32.2073 17.8313C32.0911 17.8843 31.965 17.9116 31.8373 17.9116" fill="white"/>
<path d="M19.6755 49.2188C19.5048 49.2194 19.3358 49.1849 19.179 49.1174C19.0223 49.0498 18.8811 48.9506 18.7644 48.8261C18.6477 48.7015 18.5579 48.5542 18.5006 48.3934C18.4434 48.2326 18.4199 48.0617 18.4317 47.8915C18.7952 43.07 21.1224 39.2682 24.2234 38.2703C24.4103 38.2103 24.6086 38.1951 24.8024 38.2261C24.9962 38.2571 25.18 38.3333 25.3389 38.4485C25.4977 38.5638 25.6272 38.7148 25.7168 38.8895C25.8063 39.0641 25.8535 39.2574 25.8544 39.4536C25.8566 39.7146 25.7757 39.9695 25.6235 40.1815C25.4713 40.3935 25.2557 40.5516 25.0077 40.633C22.9093 41.2904 21.2164 44.3434 20.9193 48.0538C20.8966 48.3685 20.7559 48.6631 20.5255 48.8786C20.295 49.0941 19.9917 49.2146 19.6761 49.2161" fill="white"/>
<path d="M39.0855 17.9135C39.2969 17.9151 39.5018 17.8407 39.6629 17.7038C39.824 17.567 39.9306 17.3768 39.9632 17.168C40.3037 14.8289 42.2161 12.9718 44.4993 12.6319C44.7083 12.5992 44.8986 12.4926 45.0357 12.3316C45.1729 12.1706 45.2477 11.9657 45.2468 11.7542C45.2468 11.6266 45.2194 11.5004 45.1665 11.3843C45.1135 11.2681 45.0363 11.1647 44.9399 11.081C44.8436 10.9973 44.7304 10.9353 44.6079 10.8991C44.4855 10.8629 44.3568 10.8535 44.2304 10.8713C42.7112 11.093 41.304 11.7989 40.2181 12.8841C39.1321 13.9694 38.4253 15.3761 38.2026 16.8952C38.1848 17.0215 38.1942 17.1503 38.2304 17.2727C38.2666 17.3951 38.3286 17.5083 38.4123 17.6047C38.496 17.701 38.5994 17.7783 38.7156 17.8312C38.8317 17.8842 38.9579 17.9115 39.0855 17.9115" fill="white"/>
<path d="M51.2938 49.2188C51.4645 49.2194 51.6334 49.1848 51.7901 49.1172C51.9468 49.0496 52.0879 48.9504 52.2046 48.8259C52.3213 48.7013 52.4111 48.5541 52.4684 48.3933C52.5257 48.2326 52.5493 48.0617 52.5376 47.8915C52.1741 43.07 49.8468 39.2682 46.7458 38.2703C46.559 38.2103 46.3606 38.1951 46.1668 38.2261C45.973 38.2571 45.7892 38.3333 45.6303 38.4485C45.4715 38.5638 45.342 38.7148 45.2524 38.8895C45.1629 39.0641 45.1157 39.2574 45.1148 39.4536C45.1126 39.7146 45.1935 39.9695 45.3457 40.1815C45.4979 40.3935 45.7136 40.5516 45.9615 40.633C48.06 41.2904 49.7528 44.3434 50.05 48.0538C50.0719 48.3688 50.2123 48.6638 50.443 48.8795C50.6736 49.0951 50.9774 49.2154 51.2931 49.2161" fill="white"/>
<path d="M20.5444 54.1114H18.4664V54.1048C18.4417 53.9773 18.4315 53.8474 18.4361 53.7176C18.4361 53.3593 18.6748 53.0017 19.2816 53.0017H23.9544C23.975 53.1432 23.9851 53.286 23.9846 53.429C23.9846 53.7768 23.7756 54.1147 23.1695 54.1147H21.9164V59.6618H20.5444V54.1114Z" fill="#143E59"/>
<path d="M28.2305 58.6047C28.8669 58.6047 29.0556 58.9524 29.0556 59.3101C29.0556 59.4593 29.0457 59.5388 29.0358 59.6585H24.7305V52.9983H28.8767C28.9018 53.1191 28.9119 53.2425 28.907 53.3658C28.907 53.8332 28.7098 54.062 28.0616 54.062H26.1031V55.7022H28.2108V56.7659H26.1031V58.6066L28.2305 58.6047Z" fill="#143E59"/>
<path d="M31.5718 58.772C32.1181 58.772 32.6848 58.5334 32.6848 57.8773C32.6848 57.1818 32.0583 56.9826 31.3825 56.7439C30.5377 56.456 29.5726 56.1378 29.5726 54.8157C29.5726 53.5331 30.6666 52.8672 31.9393 52.8672C32.8143 52.8672 33.4704 53.1657 33.6696 53.3149C33.8583 53.424 33.9477 53.5732 33.9477 53.7619C33.9477 53.921 33.7985 54.2221 33.55 54.4851C33.2212 54.2168 32.6552 53.9282 32.0688 53.9282C31.5915 53.9282 31.0045 54.0873 31.0045 54.6836C31.0045 55.2503 31.581 55.4593 32.2272 55.698C33.0727 56.0155 34.0772 56.3554 34.0772 57.6557C34.0772 59.0573 33.053 59.8252 31.579 59.8252C30.635 59.8252 30.0479 59.5773 29.7797 59.4183C29.6206 59.3085 29.501 59.1698 29.501 58.9804C29.501 58.7523 29.7199 58.4039 29.9289 58.1258C30.2971 58.4137 30.8237 58.772 31.5725 58.772" fill="#143E59"/>
<path d="M38.3629 59.7078H36.8509L34.6157 53.0581C34.8544 52.9873 35.1025 52.9536 35.3514 52.9582C35.8582 52.9582 36.137 53.2165 36.2862 53.6938L37.6483 58.2168L39.0401 53.6642C39.1893 53.1968 39.4477 52.9582 39.9552 52.9582C40.1828 52.9617 40.4089 52.9953 40.6277 53.0581L38.3629 59.7078Z" fill="#143E59"/>
<path d="M45.1836 59.6586L44.6169 58.0283H42.32L41.7737 59.6586H40.4214L42.7315 53.0977C42.9837 53.0032 43.2511 52.956 43.5204 52.9583C43.809 52.9583 44.2764 53.028 44.4552 53.575L46.5931 59.6586H45.1836ZM43.4836 54.2022L42.579 57.0349H44.3586L43.4836 54.2022Z" fill="#143E59"/>
<path d="M51.2779 57.5888V53.008L51.4369 52.9882C51.529 52.9733 51.6219 52.9632 51.715 52.958C52.0832 52.958 52.5802 53.0678 52.5802 53.7337V59.6583H51.4284L48.5943 55.2879V59.6616H47.292V53.0218C47.4918 52.9821 47.695 52.9621 47.8988 52.962C48.3261 52.962 48.5246 53.1013 48.714 53.4096L51.2779 57.5888Z" fill="#143E59"/>
</g>
<defs>
<clipPath id="clip0">
<rect width="71" height="71" fill="white"/>
</clipPath>
</defs>
</svg>
